<?xml version="1.0" standalone="no"?><!DOCTYPE svg PUBLIC "-//W3C//DTD SVG 1.1//EN" "http://www.w3.org/Graphics/SVG/1.1/DTD/svg11.dtd"><svg t="1710747877558" class="icon" viewBox="0 0 1024 1024" version="1.1" xmlns="http://www.w3.org/2000/svg" p-id="4284" xmlns:xlink="http://www.w3.org/1999/xlink" width="48" height="48"><path d="M292.583197 576.668859l0-0.319272L189.248713 576.349587c-55.724139 0-100.860129 43.940768-101.1794 98.254791l-0.026606 0 0 110.73094c0 2.924609 0.611937 5.691629 1.488911 8.323573 8.112772 46.680159 49.579185 82.269725 99.718119 82.269725l103.334483 0 0-0.292666c47.186695-2.870374 85.541235-37.288255 93.228311-81.976036 0.931209-2.63092 1.569752-5.39794 1.569752-8.323573L387.382283 674.604378l-0.054235 0C387.088594 622.392226 345.275279 579.914786 292.583197 576.668859zM334.104869 771.928984c0 28.726252-23.857361 52.001351-53.276391 52.001351l-86.286202 0c-29.416983 0-53.223179-23.275099-53.223179-52.001351l0-91.577718c0-28.726252 23.806195-51.999304 53.223179-51.999304l86.286202 0c29.41903 0 53.276391 23.273053 53.276391 51.999304L334.104869 771.928984z" fill="#707070" p-id="4285"></path><path d="M469.357296 276.744975l435.790294 0c15.054881 0 27.235294-12.181437 27.235294-27.236318s-12.180414-27.237341-27.235294-27.237341L469.357296 222.271316c-15.054881 0-27.237341 12.18246-27.237341 27.237341S454.303438 276.744975 469.357296 276.744975z" fill="#707070" p-id="4286"></path><path d="M905.14759 358.455975 469.357296 358.455975c-15.054881 0-27.237341 12.181437-27.237341 27.236318s12.18246 27.237341 27.237341 27.237341l435.790294 0c15.054881 0 27.235294-12.18246 27.235294-27.237341S920.202471 358.455975 905.14759 358.455975z" fill="#707070" p-id="4287"></path><path d="M905.14759 630.825292 469.357296 630.825292c-15.054881 0-27.237341 12.180414-27.237341 27.235294s12.18246 27.236318 27.237341 27.236318l435.790294 0c15.054881 0 27.235294-12.181437 27.235294-27.236318S920.202471 630.825292 905.14759 630.825292z" fill="#707070" p-id="4288"></path><path d="M905.14759 767.007905 469.357296 767.007905c-15.054881 0-27.237341 12.18246-27.237341 27.237341s12.18246 27.237341 27.237341 27.237341l435.790294 0c15.054881 0 27.235294-12.18246 27.235294-27.237341S920.202471 767.007905 905.14759 767.007905z" fill="#707070" p-id="4289"></path><path d="M292.583197 168.116929l0-0.319272L189.248713 167.797657c-55.724139 0-100.860129 43.940768-101.1794 98.254791l-0.026606 0 0 110.729917c0 2.927679 0.611937 5.691629 1.488911 8.325619 8.112772 46.681182 49.579185 82.269725 99.718119 82.269725l103.334483 0 0-0.292666c47.186695-2.87242 85.541235-37.291324 93.228311-81.97706 0.931209-2.632967 1.569752-5.39794 1.569752-8.325619L387.382283 266.052448l-0.054235 0C387.088594 213.840296 345.275279 171.361833 292.583197 168.116929zM334.104869 363.377054c0 28.725228-23.857361 51.999304-53.276391 51.999304l-86.286202 0c-29.416983 0-53.223179-23.275099-53.223179-51.999304l0-91.579765c0-28.725228 23.806195-51.999304 53.223179-51.999304l86.286202 0c29.41903 0 53.276391 23.274076 53.276391 51.999304L334.104869 363.377054z" fill="#707070" p-id="4290"></path></svg>